<?xml version="1.0" standalone="no"?>
<!DOCTYPE svg PUBLIC "-//W3C//DTD SVG 20010904//EN"
 "http://www.w3.org/TR/2001/REC-SVG-20010904/DTD/svg10.dtd">
<svg version="1.0" xmlns="http://www.w3.org/2000/svg"
 width="600.000000pt" height="600.000000pt" viewBox="0 0 600.000000 600.000000"
 preserveAspectRatio="xMidYMid meet">

<g transform="translate(0.000000,600.000000) scale(0.100000,-0.100000)"
fill="#000000" stroke="none">
<path d="M2802 4332 c-104 -141 -197 -334 -253 -525 -80 -275 -91 -595 -29
-862 43 -184 134 -397 242 -562 98 -152 336 -427 354 -410 5 4 2 13 -6 18 -11
8 -12 12 -2 16 6 2 12 15 12 27 0 22 -31 45 -70 52 -21 4 -80 75 -80 96 0 10
-8 25 -19 35 -24 24 -92 165 -93 195 -1 31 -18 90 -31 106 -6 7 -12 25 -13 39
-2 14 -9 30 -16 34 -7 5 -9 9 -5 9 5 0 1 10 -7 22 -9 12 -13 31 -10 43 3 12
-4 51 -16 86 -19 58 -21 87 -22 302 -1 170 2 241 10 249 7 7 12 27 12 45 0 30
15 97 38 168 6 17 18 57 28 90 10 33 24 69 31 79 7 11 10 30 7 42 -4 17 1 30
19 46 24 22 96 152 117 211 5 15 21 32 35 37 14 5 25 14 25 20 0 6 -5 8 -11 5
-6 -4 -1 11 10 34 26 50 26 61 1 61 -22 0 -27 16 -8 22 8 3 5 13 -10 33 -12
15 -22 23 -22 16 0 -15 -48 -10 -55 7 -3 7 0 10 6 6 6 -3 -1 12 -16 35 -15 22
-29 41 -30 41 -1 0 0 -15 1 -32 2 -21 -2 -14 -10 19 -8 29 -25 66 -39 82 l-25
30 -50 -67z"/>
<path d="M3135 4378 c-16 -17 -17 -20 -3 -15 9 3 19 1 21 -6 2 -7 4 0 4 16 0
15 0 27 -1 26 0 0 -10 -10 -21 -21z"/>
<path d="M3084 4308 l-19 -23 23 19 c12 11 22 21 22 23 0 8 -8 2 -26 -19z"/>
<path d="M3049 4261 c-11 -11 -14 -22 -8 -36 8 -20 8 -20 8 1 1 11 6 25 13 32
6 6 10 13 7 16 -2 2 -11 -4 -20 -13z"/>
<path d="M866 4227 c3 -10 9 -15 12 -12 3 3 0 11 -7 18 -10 9 -11 8 -5 -6z"/>
<path d="M3160 4189 c0 -5 5 -7 10 -4 6 3 10 8 10 11 0 2 -4 4 -10 4 -5 0 -10
-5 -10 -11z"/>
<path d="M787 4103 c-4 -3 -7 -11 -7 -17 0 -6 5 -5 12 2 6 6 9 14 7 17 -3 3
-9 2 -12 -2z"/>
<path d="M741 3986 c-9 -10 -8 -15 2 -19 8 -3 13 3 13 14 0 23 0 23 -15 5z"/>
<path d="M720 3929 c-7 -11 -9 -23 -6 -27 3 -3 6 0 6 6 0 6 7 18 16 26 8 9 11
16 5 16 -6 0 -15 -9 -21 -21z"/>
<path d="M920 3881 c0 -5 5 -13 10 -16 6 -3 10 -2 10 4 0 5 -4 13 -10 16 -5 3
-10 2 -10 -4z"/>
<path d="M671 3704 c0 -11 3 -14 6 -6 3 7 2 16 -1 19 -3 4 -6 -2 -5 -13z"/>
<path d="M966 3664 c-4 -9 -4 -19 -1 -22 3 -3 5 0 5 7 0 7 5 9 10 6 6 -3 10
-2 10 4 0 18 -18 21 -24 5z"/>
<path d="M1000 3542 c0 -14 39 -59 40 -46 0 6 -3 14 -7 18 -5 4 -8 13 -8 19 0
5 -6 12 -12 15 -7 2 -13 -1 -13 -6z"/>
<path d="M673 3523 c-18 -7 -16 -73 6 -205 83 -482 424 -1042 986 -1617 261
-267 502 -479 782 -688 218 -162 518 -353 555 -353 40 0 365 211 593 386 238
183 244 188 250 207 4 9 10 15 15 12 5 -3 39 24 75 60 37 36 69 65 71 65 3 0
15 11 28 25 13 14 26 25 29 25 11 0 97 88 97 99 0 7 4 10 9 7 5 -3 14 1 22 10
10 13 9 16 -9 21 -18 4 -22 13 -22 44 l0 39 -80 0 c-47 0 -80 4 -80 10 0 6
-33 10 -80 10 l-80 0 0 70 0 70 -80 0 c-47 0 -80 4 -80 10 0 6 -33 10 -80 10
l-80 0 0 70 0 70 -60 0 c-33 0 -60 4 -60 10 0 6 -9 10 -20 10 -17 0 -20 7 -20
40 l0 40 -70 0 -70 0 0 -40 0 -40 70 0 71 0 -3 -77 c-3 -74 -4 -78 -25 -75
-13 2 -23 -1 -23 -7 0 -6 7 -7 17 -4 12 5 14 3 8 -8 -6 -11 -5 -12 6 -1 8 7
43 12 96 12 l83 0 0 -79 c0 -58 -4 -80 -14 -84 -20 -8 -26 2 -26 44 0 34 -2
37 -36 44 -21 4 -40 2 -43 -3 -4 -7 -18 -5 -39 3 -31 14 -47 33 -16 21 9 -3
12 -2 9 5 -4 6 -13 8 -20 5 -7 -2 -23 6 -36 20 -12 13 -27 24 -33 24 -6 0 3
-12 19 -26 17 -15 45 -39 63 -55 17 -16 32 -26 32 -22 0 5 5 0 11 -9 5 -10 20
-18 32 -19 12 0 16 -3 9 -6 -10 -4 -7 -10 10 -21 13 -9 25 -17 28 -17 10 -1
50 -30 50 -37 0 -3 -36 -8 -80 -10 -44 -2 -80 0 -80 4 0 4 -15 6 -32 5 -18 0
-71 5 -118 13 -47 7 -97 14 -112 15 -16 2 -29 4 -30 5 -2 1 -12 4 -23 6 -11 1
-44 9 -72 17 -31 9 -55 11 -59 6 -3 -5 -11 -9 -17 -9 -9 0 -9 3 1 8 8 5 -7 13
-40 23 -29 8 -55 12 -57 11 -2 -2 -7 2 -12 9 -4 7 -21 12 -38 12 -16 0 -28 4
-25 9 5 7 -1 9 -38 12 -7 1 -18 6 -24 11 -6 6 -39 20 -73 30 -33 11 -61 23
-61 27 0 5 -12 8 -26 8 -14 0 -23 4 -19 10 5 9 -15 15 -37 11 -5 0 -8 3 -8 8
0 9 -58 35 -72 32 -5 0 -8 3 -8 8 0 11 -100 67 -112 63 -4 -1 -8 2 -8 8 0 5
-14 17 -31 25 -28 15 -167 110 -197 135 -48 41 -141 107 -145 103 -3 -2 -8 5
-12 16 -3 11 -18 24 -33 30 -15 5 -21 10 -14 10 23 2 2 21 -23 21 -18 0 -22 4
-18 20 4 14 0 20 -11 20 -9 0 -15 6 -13 13 1 6 -4 11 -11 10 -6 -2 -12 3 -12
10 0 20 -58 69 -64 54 -2 -7 -5 -2 -5 11 -1 12 -8 25 -16 28 -8 4 -13 9 -12
13 2 3 -4 14 -14 23 -15 14 -18 14 -23 2 -3 -8 -10 -14 -16 -14 -14 0 -13 27
1 32 7 2 -6 27 -30 58 -24 30 -63 81 -87 114 -24 32 -44 54 -45 50 -1 -5 -4 2
-8 16 -5 17 -13 24 -27 22 -15 -2 -16 -1 -5 7 21 13 -3 41 -29 34 -15 -4 -20
0 -20 13 0 15 2 16 9 5 5 -7 11 -9 14 -4 7 11 -55 113 -69 113 -13 0 -26 24
-29 55 -1 11 -12 39 -25 63 -16 32 -25 40 -31 30 -6 -8 -9 -2 -9 20 0 20 -4
31 -10 27 -6 -4 -10 5 -10 20 0 17 -4 24 -12 19 -8 -5 -9 -2 -5 9 3 10 3 25 0
34 -6 15 -7 15 -15 -3 -7 -15 -7 -13 -5 9 4 27 -6 36 -19 16 -4 -8 -9 -7 -15
2 -6 10 -9 11 -9 2 0 -8 -15 -13 -40 -13 -22 0 -40 5 -40 10 0 6 -9 10 -20 10
-18 0 -20 7 -20 70 l0 70 -80 0 -80 0 0 -30 c0 -16 -4 -30 -10 -30 -6 0 -10
32 -10 75 0 83 -14 104 -17 25 -1 -63 -10 -100 -23 -100 -6 0 -7 29 -3 75 6
72 5 75 -16 75 -11 0 -21 5 -21 10 0 11 -7 12 -27 3z m554 -470 c3 -7 -4 -9
-16 -6 -12 3 -18 9 -15 15 7 11 26 6 31 -9z m201 -323 c3 -7 0 -10 -6 -6 -6 3
-13 0 -15 -6 -3 -7 -6 -2 -6 10 -1 25 19 26 27 2z m32 -41 c0 -5 -4 -9 -10 -9
-5 0 -10 7 -10 16 0 8 5 12 10 9 6 -3 10 -10 10 -16z m230 -264 c0 -2 -7 -8
-15 -15 -12 -10 -15 -10 -15 2 0 8 7 15 15 15 8 0 15 -1 15 -2z m197 -217 c-3
-8 -6 -5 -6 6 -1 11 2 17 5 13 3 -3 4 -12 1 -19z m208 -148 c3 -5 1 -10 -4
-10 -6 0 -11 5 -11 10 0 6 2 10 4 10 3 0 8 -4 11 -10z"/>
<path d="M1041 3428 c-1 -15 3 -29 8 -33 13 -7 26 16 14 24 -6 3 -13 13 -16
21 -3 9 -6 4 -6 -12z"/>
<path d="M1042 3340 c0 -14 2 -19 5 -12 2 6 2 18 0 25 -3 6 -5 1 -5 -13z"/>
<path d="M4561 1994 c0 -11 3 -14 6 -6 3 7 2 16 -1 19 -3 4 -6 -2 -5 -13z"/>
<path d="M3192 1964 c-7 -8 -17 -12 -22 -9 -5 3 -8 -3 -7 -13 2 -26 84 -104
91 -86 3 8 11 13 17 12 6 -2 13 9 16 25 3 21 -1 29 -19 36 -13 5 -24 5 -26 0
-6 -14 -29 -10 -36 6 -3 8 -3 22 0 30 8 19 3 19 -14 -1z m58 -90 c0 -8 -5 -12
-10 -9 -6 4 -8 11 -5 16 9 14 15 11 15 -7z"/>
<path d="M3128 1953 c7 -3 16 -2 19 1 4 3 -2 6 -13 5 -11 0 -14 -3 -6 -6z"/>
<path d="M4548 1953 c7 -3 16 -2 19 1 4 3 -2 6 -13 5 -11 0 -14 -3 -6 -6z"/>
<path d="M4435 1880 c-3 -5 -1 -10 4 -10 6 0 11 5 11 10 0 6 -2 10 -4 10 -3 0
-8 -4 -11 -10z"/>
<path d="M4475 1879 c-11 -16 -1 -19 13 -3 7 8 8 14 3 14 -5 0 -13 -5 -16 -11z"/>
<path d="M4320 1702 c0 -12 3 -12 15 -2 8 7 15 13 15 15 0 1 -7 2 -15 2 -8 0
-15 -7 -15 -15z"/>
<path d="M4249 1623 c-13 -16 -12 -17 4 -4 16 13 21 21 13 21 -2 0 -10 -8 -17
-17z"/>
<path d="M4210 1589 c0 -5 5 -7 10 -4 6 3 10 8 10 11 0 2 -4 4 -10 4 -5 0 -10
-5 -10 -11z"/>
</g>
</svg>
